ffmpeg started on 2016-12-01 at 03:50:31
Report written to "Output/x264/results/ffmpeg/old_town_cross_2160p50medium4000k.log"
Command line:
Tools/ffmpeg/ffmpeg -benchmark -y -i Input/y4m/old_town_cross_2160p50.y4m -c:v libx264 -preset medium -b:v 4000k -an Output/x264/encoded/old_town_cross_2160p50medium4000k.mkv
ffmpeg version N-82227-gdb23fde Copyright (c) 2000-2016 the FFmpeg developers
  built with gcc 5.4.0 (Ubuntu 5.4.0-6ubuntu1~16.04.2) 20160609
  configuration: --prefix=/home/jaroslav/ffmpeg_build --pkg-config-flags=--static --extra-cflags=-I/home/jaroslav/ffmpeg_build/include --extra-ldflags=-L/home/jaroslav/ffmpeg_build/lib --bindir=/home/jaroslav/bin --enable-gpl --enable-libass --enable-libfdk-aac --enable-libfreetype --enable-libmp3lame --enable-libopus --enable-libtheora --enable-libvorbis --enable-libvpx --enable-libx264 --enable-libx265 --enable-nvenc --enable-libmfx --enable-libxvid --enable-libgsm --enable-libopencore-amrnb --enable-version3 --enable-nonfree
  libavutil      55. 35.100 / 55. 35.100
  libavcodec     57. 66.101 / 57. 66.101
  libavformat    57. 57.100 / 57. 57.100
  libavdevice    57.  2.100 / 57.  2.100
  libavfilter     6. 66.100 /  6. 66.100
  libswscale      4.  3.100 /  4.  3.100
  libswresample   2.  4.100 /  2.  4.100
  libpostproc    54.  2.100 / 54.  2.100
Input #0, yuv4mpegpipe, from 'Input/y4m/old_town_cross_2160p50.y4m':
  Duration: 00:00:10.00, start: 0.000000, bitrate: 4976642 kb/s
    Stream #0:0: Video: rawvideo (I420 / 0x30323449), yuv420p(progressive), 3840x2160, SAR 1:1 DAR 16:9, 50 fps, 50 tbr, 50 tbn, 50 tbc
[libx264 @ 0x2dc9120] using SAR=1/1
[libx264 @ 0x2dc9120] using cpu capabilities: MMX2 SSE2Fast SSSE3 SSE4.2 AVX FMA3 AVX2 LZCNT BMI2
[libx264 @ 0x2dc9120] profile High, level 5.2
[libx264 @ 0x2dc9120] 264 - core 148 - H.264/MPEG-4 AVC codec - Copyleft 2003-2016 - http://www.videolan.org/x264.html - options: cabac=1 ref=3 deblock=1:0:0 analyse=0x3:0x113 me=hex subme=7 psy=1 psy_rd=1.00:0.00 mixed_ref=1 me_range=16 chroma_me=1 trellis=1 8x8dct=1 cqm=0 deadzone=21,11 fast_pskip=1 chroma_qp_offset=-2 threads=6 lookahead_threads=1 sliced_threads=0 nr=0 decimate=1 interlaced=0 bluray_compat=0 constrained_intra=0 bframes=3 b_pyramid=2 b_adapt=1 b_bias=0 direct=1 weightb=1 open_gop=0 weightp=2 keyint=250 keyint_min=25 scenecut=40 intra_refresh=0 rc_lookahead=40 rc=abr mbtree=1 bitrate=4000 ratetol=1.0 qcomp=0.60 qpmin=0 qpmax=69 qpstep=4 ip_ratio=1.40 aq=1:1.00
Output #0, matroska, to 'Output/x264/encoded/old_town_cross_2160p50medium4000k.mkv':
  Metadata:
    encoder         : Lavf57.57.100
    Stream #0:0: Video: h264 (libx264) (H264 / 0x34363248), yuv420p, 3840x2160 [SAR 1:1 DAR 16:9], q=-1--1, 4000 kb/s, 50 fps, 1k tbn, 50 tbc
    Metadata:
      encoder         : Lavc57.66.101 libx264
    Side data:
      cpb: bitrate max/min/avg: 0/0/4000000 buffer size: 0 vbv_delay: -1
Stream mapping:
  Stream #0:0 -> #0:0 (rawvideo (native) -> h264 (libx264))
Press [q] to stop, [?] for help
frame=   47 fps= 18 q=0.0 size=       0kB time=00:00:00.00 bitrate=N/A speed=   0x    frame=   56 fps= 18 q=46.0 size=       1kB time=00:00:00.06 bitrate=  96.3kbits/s speed=0.0199x    frame=   65 fps= 18 q=46.0 size=       1kB time=00:00:00.24 bitrate=  24.4kbits/s speed=0.0675x    frame=   74 fps= 18 q=43.0 size=       1kB time=00:00:00.42 bitrate=  13.9kbits/s speed=0.103x    frame=   82 fps= 18 q=42.0 size=       1kB time=00:00:00.58 bitrate=  10.1kbits/s speed=0.126x    frame=   90 fps= 18 q=41.0 size=       1kB time=00:00:00.74 bitrate=   7.9kbits/s speed=0.145x    frame=   98 fps= 17 q=41.0 size=       1kB time=00:00:00.90 bitrate=   6.5kbits/s speed=0.157x    frame=  106 fps= 17 q=41.0 size=       1kB time=00:00:01.06 bitrate=   5.5kbits/s speed=0.169x    frame=  115 fps= 17 q=40.0 size=       1kB time=00:00:01.24 bitrate=   4.7kbits/s speed=0.182x    frame=  122 fps= 17 q=40.0 size=       1kB time=00:00:01.38 bitrate=   4.3kbits/s speed=0.188x    frame=  131 fps= 17 q=40.0 size=       1kB time=00:00:01.56 bitrate=   3.8kbits/s speed=0.198x    frame=  138 fps= 16 q=40.0 size=       1kB time=00:00:01.70 bitrate=   3.5kbits/s speed= 0.2x    frame=  147 fps= 16 q=40.0 size=       1kB time=00:00:01.88 bitrate=   3.1kbits/s speed=0.208x    frame=  155 fps= 16 q=40.0 size=       1kB time=00:00:02.04 bitrate=   2.9kbits/s speed=0.212x    frame=  164 fps= 16 q=40.0 size=       1kB time=00:00:02.22 bitrate=   2.6kbits/s speed=0.219x    frame=  171 fps= 16 q=40.0 size=       1kB time=00:00:02.36 bitrate=   2.5kbits/s speed=0.222x    frame=  178 fps= 16 q=40.0 size=       1kB time=00:00:02.50 bitrate=   2.3kbits/s speed=0.224x    frame=  186 fps= 16 q=40.0 size=       1kB time=00:00:02.66 bitrate=   2.2kbits/s speed=0.228x    frame=  194 fps= 16 q=40.0 size=       1kB time=00:00:02.82 bitrate=   2.1kbits/s speed=0.232x    frame=  202 fps= 16 q=40.0 size=       1kB time=00:00:02.98 bitrate=   2.0kbits/s speed=0.234x    frame=  210 fps= 16 q=40.0 size=       1kB time=00:00:03.14 bitrate=   1.9kbits/s speed=0.237x    frame=  218 fps= 16 q=40.0 size=       1kB time=00:00:03.30 bitrate=   1.8kbits/s speed=0.239x    frame=  226 fps= 16 q=40.0 size=       1kB time=00:00:03.46 bitrate=   1.7kbits/s speed=0.239x    frame=  234 fps= 16 q=40.0 size=       1kB time=00:00:03.62 bitrate=   1.6kbits/s speed=0.241x    frame=  242 fps= 16 q=40.0 size=       1kB time=00:00:03.78 bitrate=   1.6kbits/s speed=0.242x    frame=  250 fps= 15 q=40.0 size=       1kB time=00:00:03.94 bitrate=   1.5kbits/s speed=0.244x    frame=  259 fps= 16 q=40.0 size=       1kB time=00:00:04.12 bitrate=   1.4kbits/s speed=0.247x    frame=  262 fps= 15 q=40.0 size=       1kB time=00:00:04.18 bitrate=   1.4kbits/s speed=0.235x    frame=  263 fps= 14 q=40.0 size=       1kB time=00:00:04.20 bitrate=   1.4kbits/s speed=0.228x    frame=  265 fps= 14 q=40.0 size=       1kB time=00:00:04.24 bitrate=   1.4kbits/s speed=0.221x    frame=  270 fps= 14 q=40.0 size=       1kB time=00:00:04.34 bitrate=   1.4kbits/s speed=0.219x    frame=  275 fps= 13 q=40.0 size=       1kB time=00:00:04.44 bitrate=   1.3kbits/s speed=0.218x    frame=  280 fps= 13 q=40.0 size=       1kB time=00:00:04.54 bitrate=   1.3kbits/s speed=0.216x    frame=  285 fps= 13 q=40.0 size=       1kB time=00:00:04.64 bitrate=   1.3kbits/s speed=0.215x    frame=  290 fps= 13 q=40.0 size=       1kB time=00:00:04.74 bitrate=   1.2kbits/s speed=0.214x    frame=  295 fps= 13 q=37.0 size=       1kB time=00:00:04.84 bitrate=   1.2kbits/s speed=0.211x    frame=  305 fps= 13 q=40.0 size=    2228kB time=00:00:05.04 bitrate=3620.3kbits/s speed=0.215x    frame=  314 fps= 13 q=40.0 size=    2228kB time=00:00:05.22 bitrate=3495.5kbits/s speed=0.218x    frame=  321 fps= 13 q=40.0 size=    2228kB time=00:00:05.36 bitrate=3404.2kbits/s speed=0.218x    frame=  328 fps= 13 q=40.0 size=    2228kB time=00:00:05.50 bitrate=3317.6kbits/s speed=0.219x    frame=  336 fps= 13 q=40.0 size=    2228kB time=00:00:05.66 bitrate=3223.8kbits/s speed=0.22x    frame=  345 fps= 13 q=40.0 size=    2228kB time=00:00:05.84 bitrate=3124.5kbits/s speed=0.223x    frame=  353 fps= 13 q=40.0 size=    2228kB time=00:00:06.00 bitrate=3041.2kbits/s speed=0.224x    frame=  361 fps= 13 q=40.0 size=    2228kB time=00:00:06.16 bitrate=2962.2kbits/s speed=0.225x    frame=  367 fps= 13 q=40.0 size=    2228kB time=00:00:06.28 bitrate=2905.6kbits/s speed=0.225x    frame=  376 fps= 13 q=40.0 size=    2228kB time=00:00:06.46 bitrate=2824.6kbits/s speed=0.227x    frame=  385 fps= 13 q=40.0 size=    2228kB time=00:00:06.64 bitrate=2748.1kbits/s speed=0.229x    frame=  392 fps= 13 q=40.0 size=    2228kB time=00:00:06.78 bitrate=2691.3kbits/s speed=0.229x    frame=  399 fps= 13 q=40.0 size=    2228kB time=00:00:06.92 bitrate=2636.9kbits/s speed=0.23x    frame=  408 fps= 13 q=40.0 size=    2228kB time=00:00:07.10 bitrate=2570.1kbits/s speed=0.232x    frame=  415 fps= 13 q=40.0 size=    2228kB time=00:00:07.24 bitrate=2520.4kbits/s speed=0.231x    frame=  424 fps= 13 q=40.0 size=    2228kB time=00:00:07.42 bitrate=2459.2kbits/s speed=0.233x    frame=  433 fps= 13 q=40.0 size=    2228kB time=00:00:07.60 bitrate=2401.0kbits/s speed=0.234x    frame=  440 fps= 13 q=40.0 size=    2228kB time=00:00:07.74 bitrate=2357.6kbits/s speed=0.234x    frame=  449 fps= 13 q=40.0 size=    2228kB time=00:00:07.92 bitrate=2304.0kbits/s speed=0.236x    frame=  456 fps= 13 q=40.0 size=    2228kB time=00:00:08.06 bitrate=2264.0kbits/s speed=0.236x    frame=  463 fps= 13 q=40.0 size=    2228kB time=00:00:08.20 bitrate=2225.3kbits/s speed=0.236x    frame=  472 fps= 13 q=40.0 size=    2228kB time=00:00:08.38 bitrate=2177.5kbits/s speed=0.238x    frame=  480 fps= 13 q=40.0 size=    2228kB time=00:00:08.54 bitrate=2136.7kbits/s speed=0.238x    frame=  487 fps= 13 q=40.0 size=    2228kB time=00:00:08.68 bitrate=2102.3kbits/s speed=0.239x    frame=  495 fps= 13 q=40.0 size=    2228kB time=00:00:08.84 bitrate=2064.2kbits/s speed=0.24x    frame=  500 fps= 12 q=-1.0 Lsize=    4848kB time=00:00:09.94 bitrate=3994.8kbits/s speed=0.242x    
video:4843kB audio:0kB subtitle:0kB other streams:0kB global headers:0kB muxing overhead: 0.087989%
bench: utime=133.016s
bench: maxrss=1918388kB
[libx264 @ 0x2dc9120] frame I:3     Avg QP:36.27  size:117525
[libx264 @ 0x2dc9120] frame P:183   Avg QP:38.06  size: 11409
[libx264 @ 0x2dc9120] frame B:314   Avg QP:39.69  size:  8021
[libx264 @ 0x2dc9120] consecutive B-frames: 16.0%  0.8%  0.0% 83.2%
[libx264 @ 0x2dc9120] mb I  I16..4: 17.0% 73.7%  9.3%
[libx264 @ 0x2dc9120] mb P  I16..4:  0.1%  0.1%  0.0%  P16..4: 15.4%  0.4%  0.3%  0.0%  0.0%    skip:83.7%
[libx264 @ 0x2dc9120] mb B  I16..4:  0.0%  0.0%  0.0%  B16..8: 27.4%  0.0%  0.0%  direct: 0.0%  skip:72.5%  L0:43.7% L1:56.2% BI: 0.0%
[libx264 @ 0x2dc9120] final ratefactor: 32.04
[libx264 @ 0x2dc9120] 8x8 transform intra:69.9% inter:97.7%
[libx264 @ 0x2dc9120] coded y,uvDC,uvAC intra: 30.7% 33.9% 9.5% inter: 1.5% 1.2% 0.0%
[libx264 @ 0x2dc9120] i16 v,h,dc,p: 25% 60%  5% 11%
[libx264 @ 0x2dc9120] i8 v,h,dc,ddl,ddr,vr,hd,vl,hu: 28% 19% 31%  3%  3%  3%  6%  2%  5%
[libx264 @ 0x2dc9120] i4 v,h,dc,ddl,ddr,vr,hd,vl,hu: 27% 34%  9%  5%  6%  4%  8%  3%  4%
[libx264 @ 0x2dc9120] i8c dc,h,v,p: 81% 10%  8%  1%
[libx264 @ 0x2dc9120] Weighted P-Frames: Y:0.5% UV:0.0%
[libx264 @ 0x2dc9120] ref P L0: 63.7% 27.7%  7.4%  1.2%  0.0%
[libx264 @ 0x2dc9120] ref B L0: 92.8%  6.6%  0.7%
[libx264 @ 0x2dc9120] ref B L1: 98.2%  1.8%
[libx264 @ 0x2dc9120] kb/s:3967.22
